{
	"asset":{
		"generator":"Khronos glTF Blender I/O v4.0.44",
		"version":"2.0"
	},
	"scene":0,
	"scenes":[
		{
			"name":"Scene",
			"nodes":[
				0
			]
		}
	],
	"nodes":[
		{
			"mesh":0,
			"name":"Curve",
			"rotation":[
				0.7071068286895752,
				0,
				0,
				0.7071068286895752
			]
		}
	],
	"materials":[
		{
			"doubleSided":true,
			"name":"SVGMat",
			"pbrMetallicRoughness":{
				"baseColorFactor":[
					0.7530699372291565,
					0.15291941165924072,
					0.039543427526950836,
					1
				],
				"metallicFactor":0,
				"roughnessFactor":0.4000000059604645
			}
		}
	],
	"meshes":[
		{
			"name":"Curve",
			"primitives":[
				{
					"attributes":{
						"POSITION":0,
						"NORMAL":1,
						"TEXCOORD_0":2
					},
					"indices":3,
					"material":0
				}
			]
		}
	],
	"accessors":[
		{
			"bufferView":0,
			"componentType":5126,
			"count":18756,
			"max":[
				1.3379721641540527,
				0.13210655748844147,
				1.3380762338638306
			],
			"min":[
				-1.337972640991211,
				-0.13210655748844147,
				-1.3373175859451294
			],
			"type":"VEC3"
		},
		{
			"bufferView":1,
			"componentType":5126,
			"count":18756,
			"type":"VEC3"
		},
		{
			"bufferView":2,
			"componentType":5126,
			"count":18756,
			"type":"VEC2"
		},
		{
			"bufferView":3,
			"componentType":5123,
			"count":95844,
			"type":"SCALAR"
		}
	],
	"bufferViews":[
		{
			"buffer":0,
			"byteLength":225072,
			"byteOffset":0,
			"target":34962
		},
		{
			"buffer":0,
			"byteLength":225072,
			"byteOffset":225072,
			"target":34962
		},
		{
			"buffer":0,
			"byteLength":150048,
			"byteOffset":450144,
			"target":34962
		},
		{
			"buffer":0,
			"byteLength":191688,
			"byteOffset":600192,
			"target":34963
		}
	],
	"buffers":[
		{
			"byteLength":791880,
			"uri":"untitled.bin"
		}
	]
}
